<?xml version="1.0" standalone="no"?>
<!DOCTYPE svg PUBLIC "-//W3C//DTD SVG 20010904//EN"
 "http://www.w3.org/TR/2001/REC-SVG-20010904/DTD/svg10.dtd">
<svg version="1.0" xmlns="http://www.w3.org/2000/svg"
 width="512.000000pt" height="512.000000pt" viewBox="0 0 512.000000 512.000000"
 preserveAspectRatio="xMidYMid meet">
<metadata>
Created by potrace 1.14, written by Peter Selinger 2001-2017
</metadata>
<g transform="translate(0.000000,512.000000) scale(0.100000,-0.100000)"
fill="#000000" stroke="none">
<path d="M1115 5101 c-48 -22 -69 -44 -90 -94 -52 -126 43 -257 184 -252 23 1
45 -3 46 -9 2 -6 6 -139 8 -296 3 -157 8 -301 11 -320 45 -251 82 -375 168
-558 110 -237 306 -490 503 -650 39 -31 72 -59 75 -62 3 -3 21 -17 41 -32 82
-61 135 -188 126 -297 -10 -114 -65 -197 -192 -291 -135 -102 -331 -316 -429
-470 -16 -25 -37 -56 -46 -70 -10 -14 -41 -74 -69 -133 -90 -187 -156 -410
-177 -597 -12 -106 -13 -127 -13 -365 l-1 -240 -63 -1 c-114 -3 -182 -70 -182
-179 0 -79 35 -137 100 -166 42 -19 81 -19 1462 -17 l1420 3 36 28 c54 41 80
98 75 163 -9 104 -89 174 -198 174 l-50 0 0 248 c-1 276 -3 311 -31 467 -22
120 -23 126 -69 265 -110 333 -341 660 -620 879 -108 85 -141 122 -173 190
-25 53 -30 77 -31 140 0 65 4 85 31 141 37 77 55 97 148 170 116 90 234 206
326 320 213 264 366 621 404 940 3 30 8 69 10 85 2 17 4 143 4 281 l1 252 58
4 c114 9 181 69 190 172 5 65 -21 122 -75 163 l-36 28 -1421 2 c-1362 3 -1423
2 -1461 -16z"/>
</g>
</svg>
